<svg width="864" height="721" viewBox="0 0 864 721" fill="none" xmlns="http://www.w3.org/2000/svg">
<g filter="url(#filter0_d_8_2)">
<mask id="path-1-outside-1_8_2" maskUnits="userSpaceOnUse" x="77.9807" y="0.500488" width="786" height="720" fill="black">
<rect fill="white" x="77.9807" y="0.500488" width="786" height="720"/>
<path fill-rule="evenodd" clip-rule="evenodd" d="M609.399 156.651C640.844 105.723 671.948 54.1118 702.709 2.50049H569.75L483.276 148.106L306.567 244.151C318.871 223.643 331.176 202.793 343.481 181.602L313.061 133.409H371.85L448.412 2.50049H319.213C298.705 37.3638 278.198 72.3125 257.69 107.261C237.182 142.21 216.674 177.159 196.166 212.022C180.131 239.41 164.095 266.74 148.108 293.985C125.59 332.364 103.168 370.576 80.9807 408.555L153.442 504.942C171.938 473.378 190.433 441.933 208.86 410.606C221.76 388.673 234.627 366.798 247.436 344.981C250.004 340.635 252.6 336.261 255.209 331.866C261.628 321.052 268.119 310.116 274.438 299.18L382.946 456.962C371.666 476.204 360.396 495.4 349.148 514.557C326.639 552.896 304.222 591.077 282.009 629.157L348.66 718.024H579.031L632.693 629.157L652.175 597.37H608.084H528.787H453.25H419.754C424.88 588.141 430.349 578.912 435.818 570.026C448.397 548.462 461.106 526.768 473.919 504.942H554.028L509.169 444.964C513.989 436.767 518.82 428.552 523.66 420.319L495.632 375.885H640.896H786.502L859.646 255.231H501.443C481.672 288.673 462.03 322.116 442.359 355.638L399.877 298.838L583.08 200.059C588.388 191.143 593.827 182.227 599.316 173.228C602.664 167.739 606.032 162.22 609.399 156.651Z"/>
</mask>
<path d="M702.709 2.50049L704.427 3.52446L706.23 0.500488L702.709 0.500488V2.50049ZM609.399 156.651L607.697 155.6L607.692 155.608L607.687 155.616L609.399 156.651ZM569.75 2.50049V0.500488H568.612L568.031 1.47922L569.75 2.50049ZM483.276 148.106L484.231 149.863L484.714 149.6L484.995 149.127L483.276 148.106ZM306.567 244.151L304.852 243.122L301.079 249.41L307.522 245.908L306.567 244.151ZM343.481 181.602L345.21 182.606L345.819 181.559L345.172 180.535L343.481 181.602ZM313.061 133.409V131.409H309.433L311.37 134.476L313.061 133.409ZM371.85 133.409V135.409H372.997L373.576 134.418L371.85 133.409ZM448.412 2.50049L450.139 3.51019L451.899 0.500488H448.412V2.50049ZM319.213 2.50049V0.500488H318.069L317.489 1.48645L319.213 2.50049ZM196.166 212.022L194.442 211.008L194.44 211.011L196.166 212.022ZM148.108 293.985L146.383 292.973L146.383 292.973L148.108 293.985ZM80.9807 408.555L79.2538 407.546L78.5832 408.694L79.3821 409.757L80.9807 408.555ZM153.442 504.942L151.843 506.144L153.648 508.545L155.167 505.953L153.442 504.942ZM208.86 410.606L210.584 411.62L210.584 411.62L208.86 410.606ZM247.436 344.981L245.714 343.963L245.711 343.968L247.436 344.981ZM255.209 331.866L253.489 330.845L253.489 330.845L255.209 331.866ZM274.438 299.18L276.086 298.047L274.291 295.437L272.706 298.18L274.438 299.18ZM382.946 456.962L384.671 457.973L385.314 456.876L384.593 455.829L382.946 456.962ZM349.148 514.557L347.424 513.545L347.424 513.545L349.148 514.557ZM282.009 629.157L280.282 628.149L279.613 629.295L280.409 630.357L282.009 629.157ZM348.66 718.024L347.06 719.224L347.66 720.024H348.66V718.024ZM579.031 718.024V720.024H580.16L580.743 719.058L579.031 718.024ZM632.693 629.157L630.988 628.111L630.981 628.123L632.693 629.157ZM652.175 597.37L653.881 598.415L655.747 595.37H652.175V597.37ZM419.754 597.37L418.005 596.398L416.354 599.37H419.754V597.37ZM435.818 570.026L437.521 571.074L437.534 571.054L437.546 571.033L435.818 570.026ZM473.919 504.942V502.942H472.774L472.194 503.929L473.919 504.942ZM554.028 504.942V506.942H558.021L555.629 503.744L554.028 504.942ZM509.169 444.964L507.445 443.951L506.771 445.097L507.567 446.162L509.169 444.964ZM523.66 420.319L525.384 421.332L526.001 420.282L525.351 419.252L523.66 420.319ZM495.632 375.885V373.885H492.006L493.941 376.952L495.632 375.885ZM786.502 375.885V377.885H787.628L788.212 376.922L786.502 375.885ZM859.646 255.231L861.356 256.268L863.197 253.231H859.646V255.231ZM501.443 255.231V253.231H500.302L499.721 254.213L501.443 255.231ZM442.359 355.638L440.757 356.836L442.56 359.246L444.084 356.65L442.359 355.638ZM399.877 298.838L398.928 297.078L396.886 298.179L398.276 300.036L399.877 298.838ZM583.08 200.059L584.03 201.819L584.516 201.557L584.799 201.082L583.08 200.059ZM599.316 173.228L601.023 174.27L601.023 174.27L599.316 173.228ZM700.991 1.47652C670.233 53.0826 639.135 104.684 607.697 155.6L611.1 157.702C642.553 106.762 673.662 55.141 704.427 3.52446L700.991 1.47652ZM569.75 4.50049H702.709V0.500488H569.75V4.50049ZM484.995 149.127L571.47 3.52175L568.031 1.47922L481.556 147.085L484.995 149.127ZM307.522 245.908L484.231 149.863L482.321 146.349L305.612 242.394L307.522 245.908ZM341.751 180.598C329.451 201.781 317.151 222.622 304.852 243.122L308.282 245.18C320.591 224.664 332.901 203.806 345.21 182.606L341.751 180.598ZM311.37 134.476L341.789 182.67L345.172 180.535L314.752 132.341L311.37 134.476ZM371.85 131.409H313.061V135.409H371.85V131.409ZM446.686 1.49079L370.123 132.399L373.576 134.418L450.139 3.51019L446.686 1.49079ZM319.213 4.50049H448.412V0.500488H319.213V4.50049ZM259.415 108.273C279.923 73.3245 300.43 38.3767 320.937 3.51453L317.489 1.48645C296.981 36.3508 276.472 71.3005 255.965 106.249L259.415 108.273ZM197.89 213.036C218.399 178.172 238.907 143.222 259.415 108.273L255.965 106.249C235.457 141.198 214.95 176.146 194.442 211.008L197.89 213.036ZM149.833 294.998C165.82 267.752 181.856 240.422 197.892 213.032L194.44 211.011C178.405 238.399 162.37 265.727 146.383 292.973L149.833 294.998ZM82.7076 409.564C104.894 371.587 127.315 333.376 149.833 294.998L146.383 292.973C123.865 331.351 101.443 369.566 79.2538 407.546L82.7076 409.564ZM155.04 503.74L82.5794 407.353L79.3821 409.757L151.843 506.144L155.04 503.74ZM207.136 409.592C188.71 440.919 170.213 472.366 151.716 503.931L155.167 505.953C173.662 474.391 192.157 442.947 210.584 411.62L207.136 409.592ZM245.711 343.968C232.903 365.785 220.037 387.659 207.136 409.592L210.584 411.62C223.484 389.687 236.351 367.811 249.161 345.994L245.711 343.968ZM253.489 330.845C250.881 335.239 248.283 339.616 245.714 343.963L249.158 345.998C251.725 341.654 254.32 337.282 256.929 332.887L253.489 330.845ZM272.706 298.18C266.394 309.104 259.909 320.03 253.489 330.845L256.929 332.887C263.346 322.075 269.844 311.129 276.169 300.181L272.706 298.18ZM384.593 455.829L276.086 298.047L272.79 300.313L381.298 458.095L384.593 455.829ZM350.873 515.57C362.12 496.413 373.391 477.216 384.671 457.973L381.22 455.951C369.941 475.192 358.671 494.388 347.424 513.545L350.873 515.57ZM283.737 630.164C305.948 592.088 328.364 553.909 350.873 515.57L347.424 513.545C324.915 551.883 302.496 590.067 280.282 628.149L283.737 630.164ZM350.26 716.824L283.609 627.957L280.409 630.357L347.06 719.224L350.26 716.824ZM579.031 716.024H348.66V720.024H579.031V716.024ZM630.981 628.123L577.319 716.99L580.743 719.058L634.405 630.19L630.981 628.123ZM650.47 596.324L630.988 628.111L634.398 630.202L653.881 598.415L650.47 596.324ZM608.084 599.37H652.175V595.37H608.084V599.37ZM528.787 599.37H608.084V595.37H528.787V599.37ZM453.25 599.37H528.787V595.37H453.25V599.37ZM419.754 599.37H453.25V595.37H419.754V599.37ZM434.115 568.978C428.634 577.883 423.15 587.138 418.005 596.398L421.502 598.341C426.611 589.144 432.064 579.942 437.521 571.074L434.115 568.978ZM472.194 503.929C459.381 525.756 446.67 547.452 434.09 569.018L437.546 571.033C450.123 549.472 462.832 527.779 475.644 505.954L472.194 503.929ZM554.028 502.942H473.919V506.942H554.028V502.942ZM507.567 446.162L552.426 506.14L555.629 503.744L510.77 443.767L507.567 446.162ZM521.936 419.305C517.096 427.538 512.265 435.754 507.445 443.951L510.893 445.978C515.713 437.781 520.544 429.566 525.384 421.332L521.936 419.305ZM493.941 376.952L521.968 421.386L525.351 419.252L497.324 374.818L493.941 376.952ZM640.896 373.885H495.632V377.885H640.896V373.885ZM786.502 373.885H640.896V377.885H786.502V373.885ZM857.936 254.194L784.791 374.848L788.212 376.922L861.356 256.268L857.936 254.194ZM501.443 257.231H859.646V253.231H501.443V257.231ZM444.084 356.65C463.755 323.128 483.395 289.688 503.165 256.249L499.721 254.213C479.949 287.658 460.306 321.103 440.634 354.625L444.084 356.65ZM398.276 300.036L440.757 356.836L443.961 354.44L401.479 297.641L398.276 300.036ZM582.131 198.299L398.928 297.078L400.826 300.599L584.03 201.819L582.131 198.299ZM597.609 172.187C592.12 181.183 586.676 190.109 581.362 199.036L584.799 201.082C590.1 192.177 595.533 183.27 601.023 174.27L597.609 172.187ZM607.687 155.616C604.322 161.181 600.957 166.697 597.609 172.187L601.023 174.27C604.371 168.781 607.741 163.258 611.11 157.686L607.687 155.616Z" fill="black" mask="url(#path-1-outside-1_8_2)"/>
</g>
<defs>
<filter id="filter0_d_8_2" x="0.58313" y="0.500488" width="862.614" height="719.523" filterUnits="userSpaceOnUse" color-interpolation-filters="sRGB">
<feFlood flood-opacity="0" result="BackgroundImageFix"/>
<feColorMatrix in="SourceAlpha" type="matrix" values="0 0 0 0 0 0 0 0 0 0 0 0 0 0 0 0 0 0 127 0" result="hardAlpha"/>
<feOffset dx="-78"/>
<feComposite in2="hardAlpha" operator="out"/>
<feColorMatrix type="matrix" values="0 0 0 0 0.662745 0 0 0 0 0.439216 0 0 0 0 1 0 0 0 0.62 0"/>
<feBlend mode="normal" in2="BackgroundImageFix" result="effect1_dropShadow_8_2"/>
<feBlend mode="normal" in="SourceGraphic" in2="effect1_dropShadow_8_2" result="shape"/>
</filter>
</defs>
</svg>
